<!-- Generated by IcoMoon.io -->
<svg version="1.1" xmlns="http://www.w3.org/2000/svg" width="1024" height="1024" viewBox="0 0 1024 1024">
<title></title>
<g id="icomoon-ignore">
</g>
<path d="M0 340.053v211.627c0 79.787 55.467 132.267 128 132.267 35.413 0 66.56-13.653 89.173-37.12v31.573h50.347v-338.347h-50.773v208.64c0 53.76-36.267 90.027-82.773 90.027-47.36 0-83.2-35.413-83.2-90.027v-208.64h-50.773zM317.44 340.053v338.347h48.213v-31.147c22.304 22.656 53.306 36.694 87.587 36.694 0.108 0 0.216 0 0.323 0h-0.017c0.382 0.004 0.834 0.006 1.286 0.006 70.692 0 128-57.308 128-128 0-0.452-0.002-0.904-0.007-1.355l0.001 0.069c0-0.002 0-0.004 0-0.006 0-70.692-57.308-128-128-128-0.45 0-0.899 0.002-1.348 0.007l0.068-0.001c-0.071 0-0.155 0-0.238 0-34.168 0-65.056 14.043-87.207 36.672l-0.021 0.021v-123.307h-48.64zM738.56 426.667c-72.107 0-126.72 58.88-126.72 128 0 73.813 57.173 128 130.987 128 45.227 0 81.92-18.773 106.24-51.627l-34.987-26.453c-18.347 24.747-42.667 35.413-71.253 35.413-41.387 0-74.667-29.013-81.493-69.12h200.533v-16.213c0-72.96-52.48-128-123.307-128zM1006.933 430.080c-26.88 0-46.933 12.373-58.88 32v-30.293h-48.213v246.613h48.64v-140.373c0-37.973 23.467-62.72 55.467-62.72h20.053v-45.653h-17.067zM737.707 469.333c36.267 0 66.56 25.173 74.667 62.72h-151.040c9.813-37.547 40.107-62.72 76.373-62.72zM450.133 469.333c46.507 0 84.48 38.4 84.48 85.333 0 48.213-37.973 85.333-84.48 85.333-46.944-0.242-84.907-38.354-84.907-85.332 0 0 0-0.001 0-0.001v0c0 0 0-0.001 0-0.001 0-46.978 37.962-85.090 84.884-85.332h0.023z"></path>
</svg>
